<svg xmlns="http://www.w3.org/2000/svg" x="0px" y="0px" width="1000" height="1000" viewBox="0,0,256,256">
<g fill="#beb616" fill-rule="nonzero" stroke="none" stroke-width="1" stroke-linecap="butt" stroke-linejoin="miter" stroke-miterlimit="10" stroke-dasharray="" stroke-dashoffset="0" font-family="none" font-weight="none" font-size="none" text-anchor="none" style="mix-blend-mode: normal"><g transform="scale(5.33333,5.33333)"><path d="M48,12l-2,2v23l-4,-3v-8l-2,4l-2,-4v5l-4,-3v-15.008c0,-0.548 0.444,-0.992 0.992,-0.992h3.008l2,3l2,-3z"></path><path d="M9.953,11.999l-9.953,-0.003l2,2.004v23l10,-8v-14.953c0,-1.131 -0.916,-2.047 -2.047,-2.048zM9,24l-3,2v-10h3z"></path><path d="M21,12h-6c-1.105,0 -2,0.895 -2,2v14l7,5l3,-3v-16c0,-1.105 -0.895,-2 -2,-2zM20,26l-3,-2v-8h3z"></path><path d="M31,12h-5c-1.105,0 -2,0.895 -2,2v16l3,3l6,-5v-14c0,-1.105 -0.895,-2 -2,-2zM30,24l-3,2v-10h3z"></path></g></g>
</svg>
